<?xml version="1.0" standalone="no"?>
<!DOCTYPE svg PUBLIC "-//W3C//DTD SVG 20010904//EN"
 "http://www.w3.org/TR/2001/REC-SVG-20010904/DTD/svg10.dtd">
<svg version="1.0" xmlns="http://www.w3.org/2000/svg"
 width="512.000000pt" height="512.000000pt" viewBox="0 0 512.000000 512.000000"
 preserveAspectRatio="xMidYMid meet">
<metadata>
Created by potrace 1.14, written by Peter Selinger 2001-2017
</metadata>
<g transform="translate(0.000000,512.000000) scale(0.100000,-0.100000)"
fill="#000000" stroke="none">
<path d="M1865 4304 c-210 -54 -349 -148 -626 -424 -316 -316 -421 -488 -422
-695 -1 -105 25 -185 92 -283 75 -112 172 -179 329 -231 145 -49 277 -63 625
-68 l307 -5 0 166 0 166 -132 0 c-245 1 -498 38 -615 90 -127 58 -201 162
-189 268 8 65 51 154 113 230 76 95 254 265 329 315 134 88 271 95 342 16 35
-40 100 -190 113 -263 42 -240 51 -314 59 -471 5 -99 9 -267 10 -372 l0 -193
166 0 166 0 -5 358 c-4 274 -10 399 -26 537 -67 565 -241 844 -539 860 -42 2
-86 2 -97 -1z"/>
<path d="M3090 4296 c-122 -38 -192 -78 -265 -151 -162 -161 -225 -416 -228
-915 0 -135 2 -251 7 -258 8 -13 235 -18 294 -6 l30 6 5 242 c5 242 7 263 55
447 5 20 24 64 43 99 85 160 244 189 419 75 73 -46 260 -225 332 -316 20 -25
53 -75 72 -111 32 -58 36 -72 36 -139 0 -41 -6 -85 -13 -99 -36 -71 -233 -154
-427 -181 -251 -34 -343 -41 -597 -46 l-283 -6 0 -168 0 -168 57 -7 c99 -12
574 3 783 26 468 50 761 175 860 369 58 115 62 230 12 367 -54 147 -139 266
-341 476 -183 190 -342 323 -476 398 -115 65 -284 94 -375 66z"/>
<path d="M2607 2553 c-10 -10 -8 -522 3 -653 24 -289 31 -345 56 -461 23 -108
43 -175 88 -294 25 -66 89 -165 139 -215 89 -89 225 -140 336 -127 70 8 197
54 259 93 29 19 55 34 58 34 20 0 201 158 344 300 137 135 300 323 300 344 0
3 15 29 34 58 56 89 90 199 90 298 0 73 -5 96 -32 164 -77 186 -200 295 -412
361 -141 44 -291 58 -615 59 l-290 1 -3 -172 -2 -173 183 0 c518 0 747 -101
747 -328 0 -60 -5 -78 -35 -137 -19 -37 -52 -87 -73 -113 -36 -44 -220 -231
-259 -263 -175 -144 -345 -163 -426 -48 -40 58 -93 205 -108 304 -5 33 -19
121 -30 195 -17 108 -22 198 -26 458 l-5 322 -157 0 c-87 0 -161 -3 -164 -7z"/>
<path d="M1785 2500 c-261 -24 -426 -57 -577 -115 -202 -78 -312 -169 -366
-304 -78 -192 -3 -409 233 -681 77 -88 230 -241 335 -335 51 -46 166 -135 174
-135 3 0 25 -13 49 -30 61 -41 199 -90 273 -97 78 -7 147 9 251 59 76 37 203
137 203 160 0 5 11 24 24 41 51 67 91 184 118 342 16 96 21 183 25 433 l5 312
-164 0 -165 0 -6 -252 c-6 -261 -12 -307 -53 -443 -42 -135 -108 -212 -205
-240 -55 -15 -64 -15 -122 0 -98 25 -189 87 -317 215 -144 144 -189 199 -229
279 -75 147 -45 253 91 322 41 21 165 61 248 80 129 29 479 59 724 62 l226 2
0 173 0 172 -287 -1 c-190 -1 -356 -7 -488 -19z"/>
</g>
</svg>
